<svg xmlns="http://www.w3.org/2000/svg" width="1280" height="720" viewBox="0 0 1280 720">
    <defs>
        <linearGradient id="bg" x1="0" x2="1" y1="0" y2="1">
            <stop offset="0" stop-color="#111827"/>
            <stop offset="1" stop-color="#1f2937"/>
        </linearGradient>
        <filter id="shadow" x="-20%" y="-20%" width="140%" height="140%">
            <feDropShadow dx="0" dy="16" stdDeviation="18" flood-color="#000000" flood-opacity=".32"/>
        </filter>
        <style>
            .title{font:800 30px Arial, sans-serif; fill:#ffffff}
            .sub{font:700 14px Arial, sans-serif; fill:#93c5fd; letter-spacing:.06em}
            .lbl{font:800 13px Arial, sans-serif}
            .val{font:500 14px Arial, sans-serif}
            .section{font:800 18px Arial, sans-serif; fill:#ffffff}
            .note{font:700 15px Arial, sans-serif; fill:#f8fafc}
        </style>
    </defs>
    <rect width="1280" height="720" fill="#0f172a"/>
    <rect x="38" y="34" width="1204" height="632" rx="18" fill="url(#bg)" stroke="#475569" filter="url(#shadow)"/>
    <text x="66" y="78" class="title">Mascara WorldTracer SITA - AHL</text>
    <text x="66" y="104" class="sub">Exemplo de preenchimento operacional no formato WorldTracer</text>
    <line x1="66" y1="128" x2="1212" y2="128" stroke="#94a3b8"/>
    
    <text x="66" y="160" class="lbl" fill="#facc15">COMANDO</text>
    <rect x="66" y="170" width="250" height="36" rx="5" fill="#ffffff" stroke="#facc15" stroke-width="2"/>
    <text x="76" y="193" class="val" fill="#0f172a">&gt;WM AHL GRULA26266</text>
    
    <text x="350" y="160" class="lbl" fill="#e5e7eb">STATUS</text>
    <rect x="350" y="170" width="220" height="36" rx="5" fill="#ffffff" stroke="#cbd5e1" stroke-width="1"/>
    <text x="360" y="193" class="val" fill="#0f172a">ABERTO</text>
    
    <text x="604" y="160" class="lbl" fill="#e5e7eb">DATE</text>
    <rect x="604" y="170" width="260" height="36" rx="5" fill="#ffffff" stroke="#cbd5e1" stroke-width="1"/>
    <text x="614" y="193" class="val" fill="#0f172a">30/06/2026, 19:16</text>
    
    <text x="66" y="235" class="lbl" fill="#e5e7eb">TN</text>
    <rect x="66" y="245" width="250" height="36" rx="5" fill="#ffffff" stroke="#cbd5e1" stroke-width="1"/>
    <text x="76" y="268" class="val" fill="#0f172a">LA852147</text>
    
    <text x="350" y="235" class="lbl" fill="#e5e7eb">CT</text>
    <rect x="350" y="245" width="300" height="36" rx="5" fill="#ffffff" stroke="#cbd5e1" stroke-width="1"/>
    <text x="360" y="268" class="val" fill="#0f172a">BK23XXX</text>
    
    <text x="684" y="235" class="lbl" fill="#e5e7eb">BI</text>
    <rect x="684" y="245" width="260" height="36" rx="5" fill="#ffffff" stroke="#cbd5e1" stroke-width="1"/>
    <text x="694" y="268" class="val" fill="#0f172a">CRUZEIRO</text>
    
    <text x="978" y="235" class="lbl" fill="#e5e7eb">BW</text>
    <rect x="978" y="245" width="120" height="36" rx="5" fill="#ffffff" stroke="#cbd5e1" stroke-width="1"/>
    <text x="988" y="268" class="val" fill="#0f172a">23</text>
    
    <text x="66" y="310" class="lbl" fill="#facc15">FD</text>
    <rect x="66" y="320" width="260" height="36" rx="5" fill="#ffffff" stroke="#facc15" stroke-width="2"/>
    <text x="76" y="343" class="val" fill="#0f172a">LA8070/25JUN</text>
    
    <text x="350" y="310" class="lbl" fill="#facc15">RT</text>
    <rect x="350" y="320" width="360" height="36" rx="5" fill="#ffffff" stroke="#facc15" stroke-width="2"/>
    <text x="360" y="343" class="val" fill="#0f172a">FRA/GRU</text>
    
    <text x="734" y="310" class="lbl" fill="#e5e7eb">TK</text>
    <rect x="734" y="320" width="260" height="36" rx="5" fill="#ffffff" stroke="#cbd5e1" stroke-width="1"/>
    <text x="744" y="343" class="val" fill="#0f172a">957841259682</text>
    
    <text x="1028" y="310" class="lbl" fill="#e5e7eb">LA</text>
    <rect x="1028" y="320" width="70" height="36" rx="5" fill="#ffffff" stroke="#cbd5e1" stroke-width="1"/>
    <text x="1038" y="343" class="val" fill="#0f172a">PT</text>
    
    <text x="66" y="385" class="lbl" fill="#e5e7eb">NM</text>
    <rect x="66" y="395" width="1032" height="36" rx="5" fill="#ffffff" stroke="#cbd5e1" stroke-width="1"/>
    <text x="76" y="418" class="val" fill="#0f172a">SILVA/CARLOS</text>
    
    <text x="66" y="460" class="lbl" fill="#e5e7eb">DESCRIPTION</text>
    <rect x="66" y="470" width="1032" height="86" rx="5" fill="#ffffff" stroke="#cbd5e1" stroke-width="1"/>
    <text x="76" y="494" class="val" fill="#0f172a">Passageiro informa nao ter localizado a bagagem na esteira.</text><text x="76" y="516" class="val" fill="#0f172a">Dados conferidos e PIR aberto conforme procedimento.</text>
    <rect x="66" y="610" width="1146" height="36" rx="8" fill="#0369a1" opacity=".95"/>
    <text x="84" y="634" class="note">A mascara SITA reforca os campos usados na comunicacao operacional.</text>
</svg>