<svg xmlns="http://www.w3.org/2000/svg" width="900" height="520" viewBox="0 0 900 520" role="img" aria-label="Atendimento PcD"><defs><linearGradient id="bg" x1="0" x2="1" y1="0" y2="1"><stop offset="0" stop-color="#0f3448"/><stop offset=".55" stop-color="#0b2436"/><stop offset="1" stop-color="#071421"/></linearGradient><radialGradient id="halo" cx=".20" cy=".15" r=".85"><stop offset="0" stop-color="#06b6d4" stop-opacity=".55"/><stop offset="1" stop-color="#06b6d4" stop-opacity="0"/></radialGradient></defs><rect width="900" height="520" fill="url(#bg)"/><rect width="900" height="520" fill="url(#halo)"/><path d="M0 404c138-74 250-38 384-88 132-50 232-168 516-96v300H0z" fill="#06b6d4" opacity=".16"/><g transform="translate(42 38)"><circle cx="192" cy="142" r="34" fill="#06b6d4"/><path d="M192 188v88l68 96M192 244h102" stroke="#f8fafc" stroke-width="24" fill="none" stroke-linecap="round" stroke-linejoin="round"/><circle cx="202" cy="360" r="64" fill="none" stroke="#f8fafc" stroke-width="18"/><rect x="382" y="182" width="150" height="112" rx="16" fill="#f8fafc"/></g><rect x="558" y="122" width="246" height="78" rx="18" fill="#ffffff" opacity=".10" stroke="#ffffff" stroke-opacity=".22"/><text x="582" y="171" fill="#f8fafc" font-family="Segoe UI, Arial, sans-serif" font-size="24" font-weight="800">Leal Academy</text><text x="558" y="284" fill="#f8fafc" font-family="Segoe UI, Arial, sans-serif" font-size="46" font-weight="900">Atendimento PcD</text><text x="562" y="334" fill="#dbeafe" font-family="Segoe UI, Arial, sans-serif" font-size="24" font-weight="700">Acessibilidade aeroportuaria</text><path d="M562 368h202" stroke="#06b6d4" stroke-width="8" stroke-linecap="round"/></svg>
