<svg xmlns="http://www.w3.org/2000/svg" width="900" height="520" viewBox="0 0 900 520" role="img" aria-label="WorldTracer Completo">
    <defs>
        <linearGradient id="g" x1="0" x2="1" y1="0" y2="1">
            <stop offset="0" stop-color="#2563eb"/>
            <stop offset=".55" stop-color="#581c87"/>
            <stop offset="1" stop-color="#0f172a"/>
        </linearGradient>
        <radialGradient id="light" cx=".25" cy=".2" r=".8">
            <stop offset="0" stop-color="#ffffff" stop-opacity=".35"/>
            <stop offset="1" stop-color="#ffffff" stop-opacity="0"/>
        </radialGradient>
    </defs>
    <rect width="900" height="520" fill="url(#g)"/>
    <rect width="900" height="520" fill="url(#light)"/>
    <path d="M0 404c150-82 270-36 398-86 122-48 210-174 502-110v312H0z" fill="#38bdf8" opacity=".26"/>
    <g transform="translate(44 34) scale(.84)" fill="none" stroke-linecap="round" stroke-linejoin="round">
        
            <circle cx="210" cy="210" r="142" fill="none" stroke="#f8fafc" stroke-width="18"/>
            <path d="M68 210h284M210 68c58 58 58 226 0 284M210 68c-58 58-58 226 0 284" fill="none" stroke="#f8fafc" stroke-width="12" opacity=".8"/>
            <path d="M330 120l92 42-92 42 18-42z" fill="#f8fafc"/>
        
    </g>
    <text x="440" y="252" fill="#f8fafc" font-family="Segoe UI, Arial, sans-serif" font-size="46" font-weight="800">WorldTracer Completo</text>
    <text x="442" y="306" fill="#dbeafe" font-family="Segoe UI, Arial, sans-serif" font-size="24" font-weight="600">Airport Baggage Simulator</text>
    <text x="442" y="360" fill="#f8fafc" opacity=".82" font-family="Segoe UI, Arial, sans-serif" font-size="18">Treinamento operacional de bagagem</text>
</svg>
