<svg xmlns="http://www.w3.org/2000/svg" width="900" height="520" viewBox="0 0 900 520" role="img" aria-label="WorldTracer"><defs><linearGradient id="bg" x1="0" x2="1" y1="0" y2="1"><stop offset="0" stop-color="#0f3448"/><stop offset=".55" stop-color="#0b2436"/><stop offset="1" stop-color="#071421"/></linearGradient><radialGradient id="halo" cx=".20" cy=".15" r=".85"><stop offset="0" stop-color="#60a5fa" stop-opacity=".55"/><stop offset="1" stop-color="#60a5fa" stop-opacity="0"/></radialGradient></defs><rect width="900" height="520" fill="url(#bg)"/><rect width="900" height="520" fill="url(#halo)"/><path d="M0 404c138-74 250-38 384-88 132-50 232-168 516-96v300H0z" fill="#60a5fa" opacity=".16"/><g transform="translate(42 38)"><circle cx="210" cy="260" r="122" fill="none" stroke="#60a5fa" stroke-width="15"/><path d="M88 260h244M210 138c50 48 50 196 0 244M210 138c-50 48-50 196 0 244" stroke="#e2e8f0" stroke-width="10" fill="none" opacity=".9"/><rect x="390" y="168" width="180" height="164" rx="12" fill="#020617" stroke="#e2e8f0" stroke-width="5"/></g><rect x="558" y="122" width="246" height="78" rx="18" fill="#ffffff" opacity=".10" stroke="#ffffff" stroke-opacity=".22"/><text x="582" y="171" fill="#f8fafc" font-family="Segoe UI, Arial, sans-serif" font-size="24" font-weight="800">Leal Academy</text><text x="558" y="284" fill="#f8fafc" font-family="Segoe UI, Arial, sans-serif" font-size="46" font-weight="900">WorldTracer</text><text x="562" y="334" fill="#dbeafe" font-family="Segoe UI, Arial, sans-serif" font-size="24" font-weight="700">Transacoes completas</text><path d="M562 368h202" stroke="#60a5fa" stroke-width="8" stroke-linecap="round"/></svg>
