<svg xmlns="http://www.w3.org/2000/svg" viewBox="0 0 1024 576" role="img" aria-label="ATRASO e PORTÃO">
  <defs>
    <linearGradient id="bg" x1="0" x2="1" y1="0" y2="1"><stop offset="0" stop-color="#061826"/><stop offset="0.52" stop-color="#083344"/><stop offset="1" stop-color="#0f766e"/></linearGradient>
    <style>.kicker{font:800 20px Arial,sans-serif;letter-spacing:3px;fill:#22d3ee}.title{font:800 42px Arial,sans-serif;fill:#fff}.subtitle{font:600 21px Arial,sans-serif;fill:#dbeafe}.letter{font:800 28px Arial,sans-serif;fill:#fff}.miniLetter{font:800 15px Arial,sans-serif;fill:#0f172a}.cardTitle{font:800 22px Arial,sans-serif;fill:#0f172a}.avatarLabel{font:800 18px Arial,sans-serif;fill:#dbeafe}.note{font:700 17px Arial,sans-serif;fill:#ccfbf1}</style>
  </defs>
  <rect width="1024" height="576" fill="url(#bg)"/>
  <circle cx="920" cy="92" r="126" fill="#38bdf8" opacity="0.12"/>
  <circle cx="105" cy="500" r="150" fill="#22c55e" opacity="0.11"/>
  <text x="54" y="58" class="kicker">LIBRAS - LINGUAGEM DE SINAIS</text>
  <text x="54" y="112" class="title">ATRASO e PORTÃO</text>
  <foreignObject x="54" y="130" width="770" height="66"><div xmlns="http://www.w3.org/1999/xhtml" style="font:600 21px Arial,sans-serif;color:#dbeafe;line-height:1.3">Mudança de portão exige sinalização visual, mapa e confirmação.</div></foreignObject>
  <g transform="translate(55 205)"><circle cx="100" cy="54" r="44" fill="#f8fafc"/><path d="M72 48 Q100 22 128 48" fill="none" stroke="#0f172a" stroke-width="5"/><circle cx="84" cy="58" r="5" fill="#0f172a"/><circle cx="116" cy="58" r="5" fill="#0f172a"/><path d="M82 76 Q100 90 118 76" fill="none" stroke="#0f172a" stroke-width="5" stroke-linecap="round"/><rect x="48" y="104" width="104" height="128" rx="24" fill="#075985"/><rect x="76" y="112" width="48" height="76" rx="10" fill="#0284c7" opacity="0.7"/><text x="100" y="251" text-anchor="middle" class="avatarLabel">AGENTE</text><path d="M62 150 L22 208" stroke="#dbeafe" stroke-width="18" stroke-linecap="round"/><path d="M138 150 L238 112" stroke="#dbeafe" stroke-width="18" stroke-linecap="round"/><g transform="translate(265 285) scale(0.32)"><rect x="34" y="4" width="16" height="68" rx="8" fill="#f7fffb" stroke="#f59e0b" stroke-width="4"/><rect x="53" y="40" width="16" height="32" rx="8" fill="#f7fffb" stroke="#f59e0b" stroke-width="4"/><rect x="72" y="40" width="16" height="32" rx="8" fill="#f7fffb" stroke="#f59e0b" stroke-width="4"/><rect x="91" y="40" width="16" height="32" rx="8" fill="#f7fffb" stroke="#f59e0b" stroke-width="4"/><path d="M35 83 C5 75 5 45 29 35 C49 52 54 68 47 91 Z" fill="#f7fffb" stroke="#f59e0b" stroke-width="4"/><path d="M30 82 H107 C122 82 132 94 132 110 V133 C132 151 118 165 100 165 H47 C29 165 16 151 16 133 V102 C16 91 21 84 30 82 Z" fill="#f7fffb" stroke="#f59e0b" stroke-width="4"/><text x="74" y="207" text-anchor="middle" class="letter">G</text></g></g><g transform="translate(325.0 225) scale(0.42)"><rect x="34" y="40" width="16" height="32" rx="8" fill="#f7fffb" stroke="#f59e0b" stroke-width="4"/><rect x="53" y="40" width="16" height="32" rx="8" fill="#f7fffb" stroke="#f59e0b" stroke-width="4"/><rect x="72" y="40" width="16" height="32" rx="8" fill="#f7fffb" stroke="#f59e0b" stroke-width="4"/><rect x="91" y="40" width="16" height="32" rx="8" fill="#f7fffb" stroke="#f59e0b" stroke-width="4"/><path d="M35 83 C5 75 5 45 29 35 C49 52 54 68 47 91 Z" fill="#f7fffb" stroke="#f59e0b" stroke-width="4"/><path d="M30 82 H107 C122 82 132 94 132 110 V133 C132 151 118 165 100 165 H47 C29 165 16 151 16 133 V102 C16 91 21 84 30 82 Z" fill="#f7fffb" stroke="#f59e0b" stroke-width="4"/><text x="74" y="207" text-anchor="middle" class="letter">A</text></g><g transform="translate(384.15999999999997 225) scale(0.42)"><rect x="34" y="40" width="16" height="32" rx="8" fill="#f7fffb" stroke="#f59e0b" stroke-width="4"/><rect x="53" y="40" width="16" height="32" rx="8" fill="#f7fffb" stroke="#f59e0b" stroke-width="4"/><rect x="72" y="40" width="16" height="32" rx="8" fill="#f7fffb" stroke="#f59e0b" stroke-width="4"/><rect x="91" y="40" width="16" height="32" rx="8" fill="#f7fffb" stroke="#f59e0b" stroke-width="4"/><path d="M35 83 C5 75 5 45 29 35 C49 52 54 68 47 91 Z" fill="#f7fffb" stroke="#f59e0b" stroke-width="4"/><path d="M30 82 H107 C122 82 132 94 132 110 V133 C132 151 118 165 100 165 H47 C29 165 16 151 16 133 V102 C16 91 21 84 30 82 Z" fill="#f7fffb" stroke="#f59e0b" stroke-width="4"/><text x="74" y="207" text-anchor="middle" class="letter">T</text></g><g transform="translate(443.32 225) scale(0.42)"><rect x="34" y="4" width="16" height="68" rx="8" fill="#f7fffb" stroke="#f59e0b" stroke-width="4"/><rect x="53" y="4" width="16" height="68" rx="8" fill="#f7fffb" stroke="#f59e0b" stroke-width="4"/><rect x="72" y="40" width="16" height="32" rx="8" fill="#f7fffb" stroke="#f59e0b" stroke-width="4"/><rect x="91" y="40" width="16" height="32" rx="8" fill="#f7fffb" stroke="#f59e0b" stroke-width="4"/><path d="M39 96 C19 88 21 68 39 61 C53 70 57 84 49 99 Z" fill="#f7fffb" stroke="#f59e0b" stroke-width="4"/><path d="M30 82 H107 C122 82 132 94 132 110 V133 C132 151 118 165 100 165 H47 C29 165 16 151 16 133 V102 C16 91 21 84 30 82 Z" fill="#f7fffb" stroke="#f59e0b" stroke-width="4"/><text x="74" y="207" text-anchor="middle" class="letter">R</text></g><g transform="translate(502.48 225) scale(0.42)"><rect x="34" y="40" width="16" height="32" rx="8" fill="#f7fffb" stroke="#f59e0b" stroke-width="4"/><rect x="53" y="40" width="16" height="32" rx="8" fill="#f7fffb" stroke="#f59e0b" stroke-width="4"/><rect x="72" y="40" width="16" height="32" rx="8" fill="#f7fffb" stroke="#f59e0b" stroke-width="4"/><rect x="91" y="40" width="16" height="32" rx="8" fill="#f7fffb" stroke="#f59e0b" stroke-width="4"/><path d="M35 83 C5 75 5 45 29 35 C49 52 54 68 47 91 Z" fill="#f7fffb" stroke="#f59e0b" stroke-width="4"/><path d="M30 82 H107 C122 82 132 94 132 110 V133 C132 151 118 165 100 165 H47 C29 165 16 151 16 133 V102 C16 91 21 84 30 82 Z" fill="#f7fffb" stroke="#f59e0b" stroke-width="4"/><text x="74" y="207" text-anchor="middle" class="letter">A</text></g><g transform="translate(561.64 225) scale(0.42)"><rect x="34" y="40" width="16" height="32" rx="8" fill="#f7fffb" stroke="#f59e0b" stroke-width="4"/><rect x="53" y="40" width="16" height="32" rx="8" fill="#f7fffb" stroke="#f59e0b" stroke-width="4"/><rect x="72" y="40" width="16" height="32" rx="8" fill="#f7fffb" stroke="#f59e0b" stroke-width="4"/><rect x="91" y="40" width="16" height="32" rx="8" fill="#f7fffb" stroke="#f59e0b" stroke-width="4"/><path d="M39 96 C19 88 21 68 39 61 C53 70 57 84 49 99 Z" fill="#f7fffb" stroke="#f59e0b" stroke-width="4"/><path d="M30 82 H107 C122 82 132 94 132 110 V133 C132 151 118 165 100 165 H47 C29 165 16 151 16 133 V102 C16 91 21 84 30 82 Z" fill="#f7fffb" stroke="#f59e0b" stroke-width="4"/><text x="74" y="207" text-anchor="middle" class="letter">S</text></g><g transform="translate(620.8 225) scale(0.42)"><rect x="34" y="4" width="16" height="68" rx="8" fill="#f7fffb" stroke="#f59e0b" stroke-width="4"/><rect x="53" y="4" width="16" height="68" rx="8" fill="#f7fffb" stroke="#f59e0b" stroke-width="4"/><rect x="72" y="4" width="16" height="68" rx="8" fill="#f7fffb" stroke="#f59e0b" stroke-width="4"/><rect x="91" y="4" width="16" height="68" rx="8" fill="#f7fffb" stroke="#f59e0b" stroke-width="4"/><path d="M35 83 C5 75 5 45 29 35 C49 52 54 68 47 91 Z" fill="#f7fffb" stroke="#f59e0b" stroke-width="4"/><path d="M30 82 H107 C122 82 132 94 132 110 V133 C132 151 118 165 100 165 H47 C29 165 16 151 16 133 V102 C16 91 21 84 30 82 Z" fill="#f7fffb" stroke="#f59e0b" stroke-width="4"/><path d="M38 68 C58 34 100 38 120 73" fill="none" stroke="#f59e0b" stroke-width="7" stroke-linecap="round"/><text x="74" y="207" text-anchor="middle" class="letter">O</text></g><g transform="translate(705.0 244) scale(0.58)"><rect x="34" y="4" width="16" height="68" rx="8" fill="#f7fffb" stroke="#f59e0b" stroke-width="4"/><rect x="53" y="4" width="16" height="68" rx="8" fill="#f7fffb" stroke="#f59e0b" stroke-width="4"/><rect x="72" y="4" width="16" height="68" rx="8" fill="#f7fffb" stroke="#f59e0b" stroke-width="4"/><rect x="91" y="4" width="16" height="68" rx="8" fill="#f7fffb" stroke="#f59e0b" stroke-width="4"/><path d="M39 96 C19 88 21 68 39 61 C53 70 57 84 49 99 Z" fill="#f7fffb" stroke="#f59e0b" stroke-width="4"/><path d="M30 82 H107 C122 82 132 94 132 110 V133 C132 151 118 165 100 165 H47 C29 165 16 151 16 133 V102 C16 91 21 84 30 82 Z" fill="#f7fffb" stroke="#f59e0b" stroke-width="4"/><text x="74" y="207" text-anchor="middle" class="letter">B</text></g><g transform="translate(779.84 244) scale(0.58)"><rect x="34" y="4" width="16" height="68" rx="8" fill="#f7fffb" stroke="#f59e0b" stroke-width="4"/><rect x="53" y="40" width="16" height="32" rx="8" fill="#f7fffb" stroke="#f59e0b" stroke-width="4"/><rect x="72" y="40" width="16" height="32" rx="8" fill="#f7fffb" stroke="#f59e0b" stroke-width="4"/><rect x="91" y="40" width="16" height="32" rx="8" fill="#f7fffb" stroke="#f59e0b" stroke-width="4"/><path d="M39 96 C19 88 21 68 39 61 C53 70 57 84 49 99 Z" fill="#f7fffb" stroke="#f59e0b" stroke-width="4"/><path d="M30 82 H107 C122 82 132 94 132 110 V133 C132 151 118 165 100 165 H47 C29 165 16 151 16 133 V102 C16 91 21 84 30 82 Z" fill="#f7fffb" stroke="#f59e0b" stroke-width="4"/><text x="74" y="207" text-anchor="middle" class="letter">1</text></g><g transform="translate(854.6800000000001 244) scale(0.58)"><rect x="34" y="4" width="16" height="68" rx="8" fill="#f7fffb" stroke="#f59e0b" stroke-width="4"/><rect x="53" y="4" width="16" height="68" rx="8" fill="#f7fffb" stroke="#f59e0b" stroke-width="4"/><rect x="72" y="40" width="16" height="32" rx="8" fill="#f7fffb" stroke="#f59e0b" stroke-width="4"/><rect x="91" y="40" width="16" height="32" rx="8" fill="#f7fffb" stroke="#f59e0b" stroke-width="4"/><path d="M39 96 C19 88 21 68 39 61 C53 70 57 84 49 99 Z" fill="#f7fffb" stroke="#f59e0b" stroke-width="4"/><path d="M30 82 H107 C122 82 132 94 132 110 V133 C132 151 118 165 100 165 H47 C29 165 16 151 16 133 V102 C16 91 21 84 30 82 Z" fill="#f7fffb" stroke="#f59e0b" stroke-width="4"/><text x="74" y="207" text-anchor="middle" class="letter">2</text></g><g><rect x="325" y="430" width="585" height="78" rx="20" fill="#f8fafc" opacity="0.96" stroke="#f59e0b" stroke-width="3"/><text x="347" y="468" class="cardTitle">Exemplo</text><foreignObject x="347" y="485" width="541" height="14"><div xmlns="http://www.w3.org/1999/xhtml" style="font:600 18px Arial,sans-serif;color:#0f172a;line-height:1.35">PORTÃO B12 - novo horário 18:40 - siga pelo corredor central.</div></foreignObject></g>
</svg>