<svg xmlns="http://www.w3.org/2000/svg" viewBox="0 0 1024 576" role="img" aria-label="Cultura surda e LIBRAS">
  <defs>
    <linearGradient id="bg" x1="0" x2="1" y1="0" y2="1"><stop offset="0" stop-color="#05233a"/><stop offset="0.55" stop-color="#073f4b"/><stop offset="1" stop-color="#0b6b5f"/></linearGradient>
    <style>.kicker{font:700 22px Arial,sans-serif;letter-spacing:3px;fill:#22d3ee}.title{font:800 48px Arial,sans-serif;fill:#fff}.sub{font:500 24px Arial,sans-serif;fill:#dbeafe}.chip{font:700 18px Arial,sans-serif;fill:#0f172a}.small{font:700 19px Arial,sans-serif;fill:#c7f9e5}</style>
  </defs>
  <rect width="1024" height="576" fill="url(#bg)"/>
  <circle cx="118" cy="460" r="145" fill="#14b8a6" opacity="0.16"/>
  <circle cx="850" cy="110" r="120" fill="#38bdf8" opacity="0.16"/>
  <path d="M80 162 H540" stroke="#22d3ee" stroke-width="3" opacity="0.45"/>
  <text x="76" y="108" class="kicker">LIBRAS NO AEROPORTO</text>
  <text x="76" y="172" class="title">Cultura surda e LIBRAS</text>
  <foreignObject x="76" y="204" width="610" height="118"><div xmlns="http://www.w3.org/1999/xhtml" style="font:500 24px Arial,sans-serif;color:#dbeafe;line-height:1.35">LIBRAS e uma lingua visual-espacial; o atendimento deve reconhecer identidade, preferencia e autonomia.</div></foreignObject>
  <g><rect x="76" y="358" width="196" height="38" rx="12" fill="#ffffff" opacity="0.92"/><text x="94" y="383" class="chip">Lingua visual</text><rect x="290" y="358" width="166" height="38" rx="12" fill="#ffffff" opacity="0.92"/><text x="308" y="383" class="chip">Respeito</text><rect x="474" y="358" width="196" height="38" rx="12" fill="#ffffff" opacity="0.92"/><text x="492" y="383" class="chip">Sem improviso</text></g>
  <g transform="translate(76 472)"><rect width="350" height="42" rx="14" fill="#062033" opacity="0.72"/><text x="18" y="28" class="small">Imagem autoral sem marcas comerciais</text></g>
  
    <g transform="translate(740 98)">
      <rect x="80" y="120" width="62" height="178" rx="31" fill="#dff7ef" stroke="#0284c7" stroke-width="8"/>
      <rect x="15" y="112" width="56" height="166" rx="28" fill="#dff7ef" stroke="#0284c7" stroke-width="8"/>
      <rect x="148" y="132" width="52" height="146" rx="26" fill="#dff7ef" stroke="#0284c7" stroke-width="8"/>
      <rect x="210" y="164" width="46" height="114" rx="23" fill="#dff7ef" stroke="#0284c7" stroke-width="8"/>
      <path d="M71 260 C84 220 135 213 164 246 L228 316 C247 337 230 376 199 376 L82 376 C41 376 14 348 18 309 C21 279 41 263 71 260 Z" fill="#dff7ef" stroke="#0284c7" stroke-width="8"/>
      <path d="M102 267 L163 326" stroke="#0284c7" stroke-width="8" stroke-linecap="round"/>
    </g>
</svg>