<svg xmlns="http://www.w3.org/2000/svg" viewBox="0 0 1024 576" role="img" aria-label="Horário, duração e portão"><defs><linearGradient id="head" x1="0" x2="1"><stop offset="0" stop-color="#075985"/><stop offset="1" stop-color="#0f766e"/></linearGradient><style>.kicker{font:800 18px Arial,sans-serif;letter-spacing:2px;fill:#bae6fd}.title{font:800 38px Arial,sans-serif;fill:#fff}.letter{font:800 24px Arial,sans-serif;fill:#0f172a}.mini{font:800 13px Arial,sans-serif;fill:#0f172a}.panelTitle{font:800 21px Arial,sans-serif;fill:#0f172a}.badge{font:900 15px Arial,sans-serif;fill:#0369a1}</style></defs><rect width="1024" height="576" fill="#f8fafc"/><rect width="1024" height="152" fill="url(#head)"/><text x="52" y="48" class="kicker">LEAL ACADEMY - CURSO DE LIBRAS</text><text x="52" y="94" class="title">Horário, duração e portão</text><foreignObject x="52" y="105" width="860" height="42"><div xmlns="http://www.w3.org/1999/xhtml" style="font:600 19px Arial,sans-serif;color:#ecfeff;line-height:1.25">Contexto: atraso, conexão, novo portão e tempo de deslocamento.</div></foreignObject><g transform="translate(55 185)"><circle cx="100" cy="54" r="43" fill="#f7f2ea" stroke="#0f172a" stroke-width="4"/><path d="M66 42 Q98 18 134 42" fill="none" stroke="#0f172a" stroke-width="5"/><circle cx="85" cy="56" r="5" fill="#0f172a"/><circle cx="116" cy="56" r="5" fill="#0f172a"/><path d="M84 77 Q100 88 118 77" fill="none" stroke="#0f172a" stroke-width="4" stroke-linecap="round"/><path d="M44 120 Q100 95 156 120 L170 244 H30 Z" fill="#e0f2fe" stroke="#0f172a" stroke-width="4"/><path d="M72 126 L100 170 L128 126" fill="#0369a1" opacity="0.8"/><rect x="78" y="182" width="44" height="30" rx="6" fill="#fff" stroke="#0f172a" stroke-width="3"/><text x="100" y="202" text-anchor="middle" class="badge">AG</text><path d="M58 148 L26 218" stroke="#f7f2ea" stroke-width="16" stroke-linecap="round"/><path d="M143 148 L246 118" stroke="#f7f2ea" stroke-width="16" stroke-linecap="round"/><g transform="translate(274 273) scale(0.28)"><rect x="34" y="4" width="16" height="70" rx="8" fill="#f7f2ea" stroke="#0f172a" stroke-width="4"/><rect x="53" y="40" width="16" height="34" rx="8" fill="#f7f2ea" stroke="#0f172a" stroke-width="4"/><rect x="72" y="40" width="16" height="34" rx="8" fill="#f7f2ea" stroke="#0f172a" stroke-width="4"/><rect x="91" y="40" width="16" height="34" rx="8" fill="#f7f2ea" stroke="#0f172a" stroke-width="4"/><path d="M35 84 C4 75 4 45 29 35 C50 52 55 70 47 92 Z" fill="#f7f2ea" stroke="#0f172a" stroke-width="4"/><path d="M30 82 H108 C123 82 133 94 133 111 V134 C133 153 118 167 99 167 H47 C28 167 15 153 15 134 V102 C15 91 21 84 30 82 Z" fill="#f7f2ea" stroke="#0f172a" stroke-width="4"/><text x="74" y="207" text-anchor="middle" class="letter">G</text></g></g><g transform="translate(325.0 175) scale(0.38)"><rect x="34" y="40" width="16" height="34" rx="8" fill="#f7f2ea" stroke="#0f172a" stroke-width="4"/><rect x="53" y="40" width="16" height="34" rx="8" fill="#f7f2ea" stroke="#0f172a" stroke-width="4"/><rect x="72" y="40" width="16" height="34" rx="8" fill="#f7f2ea" stroke="#0f172a" stroke-width="4"/><rect x="91" y="40" width="16" height="34" rx="8" fill="#f7f2ea" stroke="#0f172a" stroke-width="4"/><path d="M35 84 C4 75 4 45 29 35 C50 52 55 70 47 92 Z" fill="#f7f2ea" stroke="#0f172a" stroke-width="4"/><path d="M30 82 H108 C123 82 133 94 133 111 V134 C133 153 118 167 99 167 H47 C28 167 15 153 15 134 V102 C15 91 21 84 30 82 Z" fill="#f7f2ea" stroke="#0f172a" stroke-width="4"/><text x="74" y="207" text-anchor="middle" class="letter">A</text></g><g transform="translate(380.24 175) scale(0.38)"><rect x="34" y="40" width="16" height="34" rx="8" fill="#f7f2ea" stroke="#0f172a" stroke-width="4"/><rect x="53" y="40" width="16" height="34" rx="8" fill="#f7f2ea" stroke="#0f172a" stroke-width="4"/><rect x="72" y="40" width="16" height="34" rx="8" fill="#f7f2ea" stroke="#0f172a" stroke-width="4"/><rect x="91" y="40" width="16" height="34" rx="8" fill="#f7f2ea" stroke="#0f172a" stroke-width="4"/><path d="M35 84 C4 75 4 45 29 35 C50 52 55 70 47 92 Z" fill="#f7f2ea" stroke="#0f172a" stroke-width="4"/><path d="M30 82 H108 C123 82 133 94 133 111 V134 C133 153 118 167 99 167 H47 C28 167 15 153 15 134 V102 C15 91 21 84 30 82 Z" fill="#f7f2ea" stroke="#0f172a" stroke-width="4"/><text x="74" y="207" text-anchor="middle" class="letter">T</text></g><g transform="translate(435.48 175) scale(0.38)"><rect x="34" y="4" width="16" height="70" rx="8" fill="#f7f2ea" stroke="#0f172a" stroke-width="4"/><rect x="53" y="4" width="16" height="70" rx="8" fill="#f7f2ea" stroke="#0f172a" stroke-width="4"/><rect x="72" y="40" width="16" height="34" rx="8" fill="#f7f2ea" stroke="#0f172a" stroke-width="4"/><rect x="91" y="40" width="16" height="34" rx="8" fill="#f7f2ea" stroke="#0f172a" stroke-width="4"/><path d="M39 97 C18 88 21 68 39 61 C54 70 58 85 49 100 Z" fill="#f7f2ea" stroke="#0f172a" stroke-width="4"/><path d="M30 82 H108 C123 82 133 94 133 111 V134 C133 153 118 167 99 167 H47 C28 167 15 153 15 134 V102 C15 91 21 84 30 82 Z" fill="#f7f2ea" stroke="#0f172a" stroke-width="4"/><text x="74" y="207" text-anchor="middle" class="letter">R</text></g><g transform="translate(490.72 175) scale(0.38)"><rect x="34" y="40" width="16" height="34" rx="8" fill="#f7f2ea" stroke="#0f172a" stroke-width="4"/><rect x="53" y="40" width="16" height="34" rx="8" fill="#f7f2ea" stroke="#0f172a" stroke-width="4"/><rect x="72" y="40" width="16" height="34" rx="8" fill="#f7f2ea" stroke="#0f172a" stroke-width="4"/><rect x="91" y="40" width="16" height="34" rx="8" fill="#f7f2ea" stroke="#0f172a" stroke-width="4"/><path d="M35 84 C4 75 4 45 29 35 C50 52 55 70 47 92 Z" fill="#f7f2ea" stroke="#0f172a" stroke-width="4"/><path d="M30 82 H108 C123 82 133 94 133 111 V134 C133 153 118 167 99 167 H47 C28 167 15 153 15 134 V102 C15 91 21 84 30 82 Z" fill="#f7f2ea" stroke="#0f172a" stroke-width="4"/><text x="74" y="207" text-anchor="middle" class="letter">A</text></g><g transform="translate(545.96 175) scale(0.38)"><rect x="34" y="40" width="16" height="34" rx="8" fill="#f7f2ea" stroke="#0f172a" stroke-width="4"/><rect x="53" y="40" width="16" height="34" rx="8" fill="#f7f2ea" stroke="#0f172a" stroke-width="4"/><rect x="72" y="40" width="16" height="34" rx="8" fill="#f7f2ea" stroke="#0f172a" stroke-width="4"/><rect x="91" y="40" width="16" height="34" rx="8" fill="#f7f2ea" stroke="#0f172a" stroke-width="4"/><path d="M39 97 C18 88 21 68 39 61 C54 70 58 85 49 100 Z" fill="#f7f2ea" stroke="#0f172a" stroke-width="4"/><path d="M30 82 H108 C123 82 133 94 133 111 V134 C133 153 118 167 99 167 H47 C28 167 15 153 15 134 V102 C15 91 21 84 30 82 Z" fill="#f7f2ea" stroke="#0f172a" stroke-width="4"/><text x="74" y="207" text-anchor="middle" class="letter">S</text></g><g transform="translate(601.2 175) scale(0.38)"><rect x="34" y="4" width="16" height="70" rx="8" fill="#f7f2ea" stroke="#0f172a" stroke-width="4"/><rect x="53" y="4" width="16" height="70" rx="8" fill="#f7f2ea" stroke="#0f172a" stroke-width="4"/><rect x="72" y="4" width="16" height="70" rx="8" fill="#f7f2ea" stroke="#0f172a" stroke-width="4"/><rect x="91" y="4" width="16" height="70" rx="8" fill="#f7f2ea" stroke="#0f172a" stroke-width="4"/><path d="M35 84 C4 75 4 45 29 35 C50 52 55 70 47 92 Z" fill="#f7f2ea" stroke="#0f172a" stroke-width="4"/><path d="M30 82 H108 C123 82 133 94 133 111 V134 C133 153 118 167 99 167 H47 C28 167 15 153 15 134 V102 C15 91 21 84 30 82 Z" fill="#f7f2ea" stroke="#0f172a" stroke-width="4"/><path d="M39 68 C58 34 100 38 120 72" fill="none" stroke="#0f172a" stroke-width="7" stroke-linecap="round"/><text x="74" y="207" text-anchor="middle" class="letter">O</text></g><g transform="translate(340.0 360) scale(0.5)"><rect x="34" y="4" width="16" height="70" rx="8" fill="#f7f2ea" stroke="#0f172a" stroke-width="4"/><rect x="53" y="4" width="16" height="70" rx="8" fill="#f7f2ea" stroke="#0f172a" stroke-width="4"/><rect x="72" y="4" width="16" height="70" rx="8" fill="#f7f2ea" stroke="#0f172a" stroke-width="4"/><rect x="91" y="4" width="16" height="70" rx="8" fill="#f7f2ea" stroke="#0f172a" stroke-width="4"/><path d="M39 97 C18 88 21 68 39 61 C54 70 58 85 49 100 Z" fill="#f7f2ea" stroke="#0f172a" stroke-width="4"/><path d="M30 82 H108 C123 82 133 94 133 111 V134 C133 153 118 167 99 167 H47 C28 167 15 153 15 134 V102 C15 91 21 84 30 82 Z" fill="#f7f2ea" stroke="#0f172a" stroke-width="4"/><text x="74" y="207" text-anchor="middle" class="letter">B</text></g><g transform="translate(407.0 360) scale(0.5)"><rect x="34" y="4" width="16" height="70" rx="8" fill="#f7f2ea" stroke="#0f172a" stroke-width="4"/><rect x="53" y="40" width="16" height="34" rx="8" fill="#f7f2ea" stroke="#0f172a" stroke-width="4"/><rect x="72" y="40" width="16" height="34" rx="8" fill="#f7f2ea" stroke="#0f172a" stroke-width="4"/><rect x="91" y="40" width="16" height="34" rx="8" fill="#f7f2ea" stroke="#0f172a" stroke-width="4"/><path d="M39 97 C18 88 21 68 39 61 C54 70 58 85 49 100 Z" fill="#f7f2ea" stroke="#0f172a" stroke-width="4"/><path d="M30 82 H108 C123 82 133 94 133 111 V134 C133 153 118 167 99 167 H47 C28 167 15 153 15 134 V102 C15 91 21 84 30 82 Z" fill="#f7f2ea" stroke="#0f172a" stroke-width="4"/><text x="74" y="207" text-anchor="middle" class="letter">1</text></g><g transform="translate(474.0 360) scale(0.5)"><rect x="34" y="4" width="16" height="70" rx="8" fill="#f7f2ea" stroke="#0f172a" stroke-width="4"/><rect x="53" y="4" width="16" height="70" rx="8" fill="#f7f2ea" stroke="#0f172a" stroke-width="4"/><rect x="72" y="40" width="16" height="34" rx="8" fill="#f7f2ea" stroke="#0f172a" stroke-width="4"/><rect x="91" y="40" width="16" height="34" rx="8" fill="#f7f2ea" stroke="#0f172a" stroke-width="4"/><path d="M39 97 C18 88 21 68 39 61 C54 70 58 85 49 100 Z" fill="#f7f2ea" stroke="#0f172a" stroke-width="4"/><path d="M30 82 H108 C123 82 133 94 133 111 V134 C133 153 118 167 99 167 H47 C28 167 15 153 15 134 V102 C15 91 21 84 30 82 Z" fill="#f7f2ea" stroke="#0f172a" stroke-width="4"/><text x="74" y="207" text-anchor="middle" class="letter">2</text></g><g><rect x="700" y="185" width="240" height="130" rx="18" fill="#ffffff" stroke="#f59e0b" stroke-width="3"/><text x="720" y="220" class="panelTitle">Horário</text><foreignObject x="720" y="235" width="200" height="70"><div xmlns="http://www.w3.org/1999/xhtml" style="font:600 17px Arial,sans-serif;color:#0f172a;line-height:1.35">18:40, embarque, chegada e duração.</div></foreignObject></g><g><rect x="700" y="345" width="240" height="130" rx="18" fill="#ffffff" stroke="#0ea5e9" stroke-width="3"/><text x="720" y="380" class="panelTitle">Portão</text><foreignObject x="720" y="395" width="200" height="70"><div xmlns="http://www.w3.org/1999/xhtml" style="font:600 17px Arial,sans-serif;color:#0f172a;line-height:1.35">Mostre painel e mapa do terminal.</div></foreignObject></g></svg>